<?xml version="1.0" standalone="no"?><!DOCTYPE svg PUBLIC "-//W3C//DTD SVG 1.1//EN" "http://www.w3.org/Graphics/SVG/1.1/DTD/svg11.dtd"><svg t="1704884243989" class="icon" viewBox="0 0 1024 1024" version="1.1" xmlns="http://www.w3.org/2000/svg" p-id="22760" xmlns:xlink="http://www.w3.org/1999/xlink" width="64" height="64"><path d="M64.2 887.8h895.7v50H64.2z" fill="#ffffff" p-id="22761"></path><path d="M331.9 634v253.4H203.7V634h128.2m5.2-50H198.5c-24.7 0-44.8 19.8-44.8 44.2v309.2h228.1V628.2c0.1-24.4-20-44.2-44.7-44.2z" fill="#ffffff" p-id="22762"></path><path d="M243.3 735.7h22.4v50h-22.4zM820.3 148.1v739.3H382.9V148.1h437.4m5.2-50H377.6c-24.7 0-44.8 19.8-44.8 44.2v795.2h537.4V142.3c0.1-24.4-20-44.2-44.7-44.2z" fill="#ffffff" p-id="22763"></path><path d="M467.2 220.9h89.6v89.6h-89.6zM646.4 220.9H736v89.6h-89.6zM467.2 377.6h89.6v89.6h-89.6zM646.4 377.6H736v89.6h-89.6zM646.4 534.4H736V624h-89.6zM646.4 691.1H736v89.6h-89.6z" fill="#ffffff" p-id="22764"></path></svg>